Normalized EMG Linear Envelopes
nRows=124
nColumns=4

endheader
time	 med_gas_r	  soleus_r	 tib_ant_r	
4.24973	  0.311657	  0.211444	  0.799390	
4.31222	  0.305037	  0.222582	  0.809888	
4.37472	  0.305560	  0.225904	  0.784384	
4.43722	  0.317969	  0.225017	  0.768552	
4.49971	  0.345180	  0.225123	  0.771130	
4.56221	  0.372547	  0.224813	  0.779290	
4.6247	  0.400625	  0.219526	  0.790001	
4.6872	  0.428132	  0.214380	  0.803091	
4.7497	  0.465890	  0.215415	  0.820203	
4.81219	  0.505877	  0.219482	  0.836886	
4.87469	  0.537519	  0.222469	  0.833465	
4.93718	  0.557058	  0.223823	  0.792661	
4.99968	  0.579547	  0.224173	  0.718994	
5.06218	  0.600660	  0.225337	  0.651719	
5.12467	  0.599084	  0.231119	  0.632911	
5.18717	  0.603065	  0.235246	  0.665180	
5.24966	  0.631232	  0.237831	  0.733815	
5.31216	  0.668708	  0.240603	  0.823275	
5.37466	  0.699596	  0.245894	  0.903227	
5.43715	  0.726847	  0.262269	  0.947811	
5.49965	  0.756278	  0.289392	  0.958757	
5.56214	  0.780199	  0.313144	  0.939759	
5.62464	  0.823315	  0.333291	  0.919720	
5.68714	  0.863527	  0.357140	  0.909768	
5.74963	  0.882368	  0.389910	  0.907413	
5.81213	  0.896690	  0.420960	  0.917730	
5.87462	  0.899767	  0.432818	  0.930024	
5.93712	  0.897346	  0.428841	  0.943281	
5.99962	  0.888132	  0.418133	  0.945355	
6.06211	  0.878285	  0.402965	  0.933740	
6.12461	  0.885820	  0.389513	  0.890439	
6.1871	  0.890263	  0.376971	  0.853063	
6.2496	  0.892869	  0.363871	  0.829330	
6.3121	  0.896139	  0.353057	  0.799863	
6.37459	  0.896256	  0.351010	  0.780786	
6.43709	  0.906107	  0.360410	  0.783892	
6.49958	  0.910453	  0.385565	  0.791512	
6.56208	  0.899402	  0.419098	  0.802402	
6.62458	  0.877508	  0.441443	  0.806253	
6.68707	  0.839150	  0.448871	  0.812050	
6.74957	  0.797676	  0.446053	  0.848108	
6.81206	  0.762950	  0.431415	  0.910374	
6.87456	  0.733217	  0.405192	  0.943224	
6.93706	  0.719871	  0.375044	  0.913218	
6.99955	  0.725685	  0.355465	  0.846293	
7.06205	  0.755954	  0.347985	  0.759173	
7.12454	  0.795369	  0.355331	  0.692194	
7.18704	  0.825174	  0.369195	  0.659473	
7.24954	  0.841913	  0.387419	  0.661688	
7.31203	  0.850700	  0.414775	  0.693373	
7.37453	  0.857528	  0.448780	  0.734331	
7.43702	  0.853365	  0.468259	  0.784641	
7.49952	  0.845422	  0.474316	  0.827751	
7.56202	  0.834736	  0.457638	  0.856620	
7.62451	  0.809456	  0.434215	  0.844574	
7.68701	  0.778950	  0.435180	  0.804084	
7.7495	  0.738291	  0.459828	  0.778061	
7.812	  0.709146	  0.483586	  0.771963	
7.8745	  0.713809	  0.504739	  0.773011	
7.93699	  0.749269	  0.526896	  0.770971	
7.99949	  0.806763	  0.534181	  0.779527	
8.06198	  0.860425	  0.533773	  0.788396	
8.12448	  0.881468	  0.530929	  0.777211	
8.18698	  0.883639	  0.538289	  0.765260	
8.24947	  0.879532	  0.550217	  0.743700	
8.31197	  0.868070	  0.562221	  0.705338	
8.37446	  0.836398	  0.579283	  0.668325	
8.43696	  0.797097	  0.585401	  0.665113	
8.49946	  0.771485	  0.567108	  0.710815	
8.56195	  0.745775	  0.534601	  0.782651	
8.62445	  0.715658	  0.498850	  0.821486	
8.68694	  0.705656	  0.490438	  0.795173	
8.74944	  0.727209	  0.512489	  0.740537	
8.81194	  0.770966	  0.553763	  0.695673	
8.87443	  0.821754	  0.595329	  0.655895	
8.93693	  0.869889	  0.616061	  0.613750	
8.99942	  0.870468	  0.619513	  0.595345	
9.06192	  0.831492	  0.637276	  0.598142	
9.12442	  0.791466	  0.659920	  0.595910	
9.18691	  0.757689	  0.658552	  0.587640	
9.24941	  0.749996	  0.629691	  0.592869	
9.3119	  0.756681	  0.588979	  0.608422	
9.3744	  0.770921	  0.560325	  0.633762	
9.4369	  0.788889	  0.537794	  0.679006	
9.49939	  0.784637	  0.519179	  0.728831	
9.56189	  0.742936	  0.486616	  0.737255	
9.62438	  0.652186	  0.419194	  0.691477	
9.68688	  0.531766	  0.326775	  0.630699	
9.74938	  0.433818	  0.240209	  0.584392	
9.81187	  0.366086	  0.178517	  0.557512	
9.87437	  0.311596	  0.147797	  0.534315	
9.93686	  0.277016	  0.143328	  0.500252	
9.99936	  0.258524	  0.152122	  0.452792	
10.0619	  0.246721	  0.156925	  0.402979	
10.1244	  0.240496	  0.156392	  0.346254	
10.1868	  0.248873	  0.158500	  0.294347	
10.2493	  0.267457	  0.161009	  0.260787	
10.3118	  0.285729	  0.156828	  0.247788	
10.3743	  0.275682	  0.150988	  0.247813	
10.4368	  0.247535	  0.146241	  0.249526	
10.4993	  0.239206	  0.144621	  0.257792	
10.5618	  0.260001	  0.144905	  0.277171	
10.6243	  0.276973	  0.139950	  0.299293	
10.6868	  0.264630	  0.134070	  0.310351	
10.7493	  0.253431	  0.131073	  0.301066	
10.8118	  0.250612	  0.129625	  0.280053	
10.8743	  0.241717	  0.131553	  0.258722	
10.9368	  0.232612	  0.132848	  0.248572	
10.9993	  0.230375	  0.128795	  0.243736	
11.0618	  0.222155	  0.125223	  0.239202	
11.1243	  0.208389	  0.128828	  0.241616	
11.1868	  0.199279	  0.134526	  0.250048	
11.2493	  0.200947	  0.137032	  0.250297	
11.3118	  0.214277	  0.136780	  0.238167	
11.3743	  0.216259	  0.136166	  0.229244	
11.4368	  0.209286	  0.137190	  0.233455	
11.4993	  0.212723	  0.140964	  0.246193	
11.5618	  0.218216	  0.142185	  0.255077	
11.6243	  0.198860	  0.135278	  0.253618	
11.6868	  0.167921	  0.125554	  0.244695	
11.7492	  0.149079	  0.116388	  0.233050	
11.8117	  0.147149	  0.109742	  0.220966	
11.8742	  0.152195	  0.107090	  0.213875	
11.9367	  0.155812	  0.109154	  0.208975	
